<svg xmlns="http://www.w3.org/2000/svg" id="Camada_1" data-name="Camada 1" viewBox="0 0 222.15 56.07" class="svg replaced-svg"><title>logo-confitec</title><path d="M27.07,12.65l.87,5.64-.21-.09a.56.56,0,0,0-.21,0,14.79,14.79,0,0,0-1.74-.46,12.31,12.31,0,0,0-2.34-.18H15.34a2.74,2.74,0,0,0-1.65.41,1.85,1.85,0,0,0-.55,1.56V35.34a1.72,1.72,0,0,0,.55,1.47,2.73,2.73,0,0,0,1.65.41h6.33A30.7,30.7,0,0,0,25.72,37a8,8,0,0,0,2-.55l.37-.18.37-.18-1,6H9.38a7.39,7.39,0,0,1-5.5-1.95Q2,38.18,2,33.46V21.36q0-4.81,1.92-6.76a7.39,7.39,0,0,1,5.5-1.95ZM59.8,27v8.53a7.77,7.77,0,0,1-1.28,4.93q-1.28,1.58-5,1.58h-17q-3.62,0-4.93-1.58a7.66,7.66,0,0,1-1.31-4.93V27q0-3.39,1.31-5t4.93-1.56h17q3.67,0,5,1.56t1.28,5m-18.61-.55v9.63a2.07,2.07,0,0,0,.34,1.33,1.51,1.51,0,0,0,1.22.41h4.49a1.64,1.64,0,0,0,1.31-.41,2.06,2.06,0,0,0,.34-1.33V26.49a2.07,2.07,0,0,0-.34-1.33,1.65,1.65,0,0,0-1.31-.41H42.75a1.52,1.52,0,0,0-1.22.41,2.07,2.07,0,0,0-.34,1.33m20.86-6H73.23l.32,2.25h.09a.09.09,0,0,1,0-.07.09.09,0,0,0,0-.07,5.69,5.69,0,0,1,1-1.44,2.29,2.29,0,0,1,1.77-.66h8.85q3.8,0,5.5,2.11a8.88,8.88,0,0,1,1.7,5.73v8.75a10.63,10.63,0,0,0,.3,3,8.91,8.91,0,0,0,.71,1.67l.09.16.09.16H80.38l.09-.16.09-.16a8.91,8.91,0,0,0,.71-1.67,10.63,10.63,0,0,0,.3-3V26.54a2,2,0,0,0-.39-1.4,2,2,0,0,0-1.4-.39H75.84a2,2,0,0,0-1.4.39,2,2,0,0,0-.39,1.4V37.13a10.63,10.63,0,0,0,.3,3,8.82,8.82,0,0,0,.71,1.67l.09.16.09.16H62l.09-.16.09-.16a8.92,8.92,0,0,0,.71-1.67,10.63,10.63,0,0,0,.3-3V25.49a10.64,10.64,0,0,0-.3-3,9,9,0,0,0-.71-1.67l-.09-.16L62,20.53m47.58,4.22V37.13a10.63,10.63,0,0,0,.3,3,8.82,8.82,0,0,0,.71,1.67l.09.16.09.16H97.61l.09-.16.09-.16a8.82,8.82,0,0,0,.71-1.67,10.63,10.63,0,0,0,.3-3V24.75H94.27V20.53h4.54V18.43a6.33,6.33,0,0,1,1.38-4q1.37-1.74,4.72-1.74h13.84l.69,5a9.45,9.45,0,0,0-.92-.37q-.41-.14-.78-.23a4.65,4.65,0,0,0-1-.16l-1.26,0h-4a2,2,0,0,0-1.4.39,1.46,1.46,0,0,0-.39,1.08v2.2h8.71v4.22Zm10.5,12.38V25.49a10.64,10.64,0,0,0-.3-3,8.86,8.86,0,0,0-.71-1.67L119,20.7l-.09-.16h12V37.13a10.63,10.63,0,0,0,.3,3,8.82,8.82,0,0,0,.71,1.67l.09.16.09.16h-13.2l.09-.16.09-.16a8.82,8.82,0,0,0,.71-1.67,10.63,10.63,0,0,0,.3-3m.09-24.48h10.63v5.68H120.21ZM138,20.53V16l10.82-.28v4.77h8.71v4.22h-8.71V36.12a2,2,0,0,0,.37,1.38,2.8,2.8,0,0,0,1.79.37h3.81a10.44,10.44,0,0,0,1.79-.14,7.79,7.79,0,0,0,1.28-.32,3.08,3.08,0,0,0,.55-.21,3,3,0,0,1,.37-.16l-.69,5H144.37a7.62,7.62,0,0,1-4.49-1.35Q138,39.37,138,35.34V24.75h-4.63V20.53Zm51.7,13.11h-18.2v2a2.31,2.31,0,0,0,.62,1.67,2.7,2.7,0,0,0,1.86.53h10.5q.92,0,1.63,0a7.17,7.17,0,0,0,1.4-.23,6.56,6.56,0,0,0,.92-.25q.46-.16,1-.39l-.83,5.13H166.88q-3.62,0-4.93-1.58a7.67,7.67,0,0,1-1.31-4.93V27q0-3.39,1.31-5t4.93-1.56h16.55q3.67,0,4.95,1.56t1.28,5Zm-18.2-4.22H179V26.49a2.18,2.18,0,0,0-.32-1.33,1.51,1.51,0,0,0-1.24-.41H173a1.51,1.51,0,0,0-1.21.41,2.07,2.07,0,0,0-.34,1.33ZM203.82,27v8.71a2.31,2.31,0,0,0,.62,1.67,2.7,2.7,0,0,0,1.86.53h5.27a17.5,17.5,0,0,0,3.55-.25A10.76,10.76,0,0,0,217,37l.18-.09.18-.09-.78,5.27H199.79q-3.71,0-5.25-1.88A7.36,7.36,0,0,1,193,35.39V27.23a7.34,7.34,0,0,1,1.54-4.84q1.54-1.86,5.25-1.86H216.7l1,5.36a3.72,3.72,0,0,0-1.88-.87,16.23,16.23,0,0,0-3.3-.28H206.3a2.78,2.78,0,0,0-1.86.51,2.29,2.29,0,0,0-.62,1.7" style="fill:#fff"></path><path d="M112.22,49.65l1.43.45a3.21,3.21,0,0,1-1.09,1.77,3.44,3.44,0,0,1-4.32-.41,3.8,3.8,0,0,1-.94-2.71,4,4,0,0,1,.94-2.83,3.23,3.23,0,0,1,2.47-1,3,3,0,0,1,2.17.79,2.87,2.87,0,0,1,.75,1.34l-1.46.35a1.5,1.5,0,0,0-1.54-1.22,1.66,1.66,0,0,0-1.32.58,2.85,2.85,0,0,0-.5,1.88,3.05,3.05,0,0,0,.5,2,1.61,1.61,0,0,0,1.29.59,1.47,1.47,0,0,0,1-.37,2.17,2.17,0,0,0,.61-1.17m2.36,0a2.87,2.87,0,0,1,.34-1.35,2.36,2.36,0,0,1,1-1,2.88,2.88,0,0,1,1.41-.34,2.63,2.63,0,0,1,2,.78,2.68,2.68,0,0,1,.77,2,2.73,2.73,0,0,1-.77,2,2.61,2.61,0,0,1-1.95.79,3.07,3.07,0,0,1-1.38-.33,2.26,2.26,0,0,1-1-1,3.22,3.22,0,0,1-.34-1.55m1.43.08a1.75,1.75,0,0,0,.37,1.2,1.22,1.22,0,0,0,1.84,0,1.77,1.77,0,0,0,.37-1.21,1.74,1.74,0,0,0-.37-1.19,1.22,1.22,0,0,0-1.84,0,1.75,1.75,0,0,0-.37,1.2m9.92,2.64h-1.4v-2.7a4.12,4.12,0,0,0-.09-1.11.77.77,0,0,0-.29-.39.83.83,0,0,0-.48-.14,1.11,1.11,0,0,0-.65.2,1,1,0,0,0-.4.53,4.57,4.57,0,0,0-.11,1.21v2.39h-1.4V47h1.3v.78a2.17,2.17,0,0,1,2.59-.73,1.42,1.42,0,0,1,.58.43,1.54,1.54,0,0,1,.27.59,4.32,4.32,0,0,1,.08.94Zm.8-5.28h.78v-.4a2.63,2.63,0,0,1,.14-1,1.13,1.13,0,0,1,.52-.54,2,2,0,0,1,1-.21,3.91,3.91,0,0,1,1.17.18l-.19,1a2.69,2.69,0,0,0-.64-.08.57.57,0,0,0-.44.14.82.82,0,0,0-.13.55V47h1v1.1h-1v4.18h-1.4V48.14h-.78Zm4-2h1.4v1.29h-1.4Zm0,2h1.4v5.28h-1.4Zm3.88,1.61-1.27-.23a2,2,0,0,1,.74-1.13,2.7,2.7,0,0,1,1.55-.37,3.33,3.33,0,0,1,1.39.22,1.39,1.39,0,0,1,.64.56,2.88,2.88,0,0,1,.19,1.25l0,1.63a5.55,5.55,0,0,0,.07,1,3,3,0,0,0,.25.71h-1.38c0-.09-.08-.23-.13-.41l0-.17a2.52,2.52,0,0,1-.77.52,2.19,2.19,0,0,1-.87.17,1.8,1.8,0,0,1-1.29-.44,1.47,1.47,0,0,1-.47-1.12,1.51,1.51,0,0,1,.21-.8,1.39,1.39,0,0,1,.6-.54,4.66,4.66,0,0,1,1.11-.33,7.63,7.63,0,0,0,1.36-.34v-.14a.73.73,0,0,0-.2-.57,1.19,1.19,0,0,0-.75-.17,1,1,0,0,0-.58.15,1,1,0,0,0-.34.51m1.87,1.13a8.39,8.39,0,0,1-.85.21,2.66,2.66,0,0,0-.76.24.59.59,0,0,0-.27.49.69.69,0,0,0,.22.51.77.77,0,0,0,.56.21,1.21,1.21,0,0,0,.72-.25.87.87,0,0,0,.33-.46,2.7,2.7,0,0,0,.05-.68ZM144,52.33h-1.4v-2.7a4.14,4.14,0,0,0-.09-1.11.77.77,0,0,0-.29-.39.83.83,0,0,0-.48-.14,1.11,1.11,0,0,0-.65.2,1,1,0,0,0-.4.53,4.55,4.55,0,0,0-.11,1.21v2.39h-1.4V47h1.3v.78a2.17,2.17,0,0,1,2.59-.73,1.43,1.43,0,0,1,.58.43,1.54,1.54,0,0,1,.27.59A4.23,4.23,0,0,1,144,49Zm6-3.72-1.38.25a1,1,0,0,0-.31-.62,1,1,0,0,0-.64-.21,1,1,0,0,0-.83.36,1.85,1.85,0,0,0-.31,1.21,2.14,2.14,0,0,0,.31,1.33,1,1,0,0,0,.85.39.94.94,0,0,0,.65-.23,1.36,1.36,0,0,0,.36-.78l1.37.23a2.44,2.44,0,0,1-.82,1.43,2.53,2.53,0,0,1-1.63.48,2.42,2.42,0,0,1-1.85-.73,3.33,3.33,0,0,1,0-4.06,2.45,2.45,0,0,1,1.87-.73,2.55,2.55,0,0,1,1.53.42,2.32,2.32,0,0,1,.82,1.27m-3.77,5.72v-.59a9,9,0,0,0,.94.05,1.09,1.09,0,0,0,.66-.16.36.36,0,0,0,0-.6.75.75,0,0,0-.48-.12,2.27,2.27,0,0,0-.65.1l.13-.49a2.57,2.57,0,0,1,.84-.13,1.43,1.43,0,0,1,.95.27.87.87,0,0,1,0,1.38,2.23,2.23,0,0,1-1.38.37,4.42,4.42,0,0,1-1-.08m5.87-5.68-1.27-.23a2,2,0,0,1,.73-1.13,2.7,2.7,0,0,1,1.55-.37,3.34,3.34,0,0,1,1.39.22,1.39,1.39,0,0,1,.64.56A2.91,2.91,0,0,1,155.4,49l0,1.63a5.52,5.52,0,0,0,.07,1,3,3,0,0,0,.25.71h-1.38c0-.09-.08-.23-.13-.41a1.51,1.51,0,0,0,0-.17,2.53,2.53,0,0,1-.77.52,2.19,2.19,0,0,1-.87.17,1.8,1.8,0,0,1-1.28-.44,1.47,1.47,0,0,1-.47-1.12,1.51,1.51,0,0,1,.21-.8,1.38,1.38,0,0,1,.6-.54,4.64,4.64,0,0,1,1.11-.33,7.57,7.57,0,0,0,1.36-.34v-.14a.72.72,0,0,0-.2-.57,1.18,1.18,0,0,0-.75-.17,1,1,0,0,0-.58.15,1,1,0,0,0-.34.51M154,49.79a8.3,8.3,0,0,1-.85.21,2.67,2.67,0,0,0-.76.24.59.59,0,0,0-.27.49.69.69,0,0,0,.22.51.76.76,0,0,0,.56.21,1.21,1.21,0,0,0,.72-.25.87.87,0,0,0,.33-.46,2.79,2.79,0,0,0,.05-.68Zm8.64.86,1.39.23a2.29,2.29,0,0,1-.85,1.17,2.49,2.49,0,0,1-1.45.4,2.36,2.36,0,0,1-2-.9,3,3,0,0,1-.52-1.82,2.92,2.92,0,0,1,.69-2.06,2.26,2.26,0,0,1,1.74-.74,2.34,2.34,0,0,1,1.86.78,3.46,3.46,0,0,1,.65,2.39h-3.5a1.41,1.41,0,0,0,.34,1,1.06,1.06,0,0,0,.81.35.86.86,0,0,0,.55-.18,1.1,1.1,0,0,0,.34-.58m.08-1.41a1.34,1.34,0,0,0-.31-.92,1,1,0,0,0-1.48,0,1.29,1.29,0,0,0-.29.91ZM170.53,47v1.11h-1v2.13a5,5,0,0,0,0,.75.31.31,0,0,0,.12.18.41.41,0,0,0,.24.07,1.85,1.85,0,0,0,.56-.13l.12,1.08a2.79,2.79,0,0,1-1.11.21,1.76,1.76,0,0,1-.68-.13,1,1,0,0,1-.44-.33,1.29,1.29,0,0,1-.2-.55,6.82,6.82,0,0,1,0-1v-2.3h-.64V47h.64V46l1.4-.82V47Zm4,3.6,1.39.23A2.29,2.29,0,0,1,175.1,52a2.49,2.49,0,0,1-1.45.4,2.36,2.36,0,0,1-2-.9,3,3,0,0,1-.52-1.82,2.91,2.91,0,0,1,.69-2.06,2.26,2.26,0,0,1,1.73-.74,2.34,2.34,0,0,1,1.86.78,3.46,3.46,0,0,1,.65,2.39h-3.5a1.41,1.41,0,0,0,.34,1,1.06,1.06,0,0,0,.81.35.86.86,0,0,0,.55-.18,1.1,1.1,0,0,0,.34-.58m.08-1.41a1.34,1.34,0,0,0-.31-.92,1,1,0,0,0-1.48,0,1.29,1.29,0,0,0-.29.91Zm7.13-.63-1.38.25a1,1,0,0,0-.32-.62,1,1,0,0,0-.64-.21,1,1,0,0,0-.83.36,1.86,1.86,0,0,0-.31,1.21,2.13,2.13,0,0,0,.32,1.33,1,1,0,0,0,.85.39.94.94,0,0,0,.65-.23,1.34,1.34,0,0,0,.36-.78l1.37.23A2.43,2.43,0,0,1,181,52a2.53,2.53,0,0,1-1.63.48,2.41,2.41,0,0,1-1.85-.73,3.33,3.33,0,0,1,0-4.06,2.45,2.45,0,0,1,1.87-.73,2.55,2.55,0,0,1,1.53.42,2.31,2.31,0,0,1,.82,1.27m5.86,3.72h-1.4v-2.7a4.2,4.2,0,0,0-.09-1.11.78.78,0,0,0-.29-.39.83.83,0,0,0-.48-.14,1.12,1.12,0,0,0-.65.2,1,1,0,0,0-.4.53,4.63,4.63,0,0,0-.11,1.21v2.39h-1.4V47h1.3v.78a2.17,2.17,0,0,1,2.59-.73,1.44,1.44,0,0,1,.58.43,1.56,1.56,0,0,1,.27.59,4.23,4.23,0,0,1,.08.94Zm1.09-2.72a2.88,2.88,0,0,1,.34-1.35,2.36,2.36,0,0,1,1-1,2.87,2.87,0,0,1,1.41-.34,2.64,2.64,0,0,1,2,.78,2.69,2.69,0,0,1,.77,2,2.73,2.73,0,0,1-.77,2,2.61,2.61,0,0,1-1.95.79,3.07,3.07,0,0,1-1.39-.33,2.26,2.26,0,0,1-1-1,3.23,3.23,0,0,1-.34-1.55m1.43.08a1.74,1.74,0,0,0,.37,1.2,1.22,1.22,0,0,0,1.84,0,1.76,1.76,0,0,0,.37-1.21,1.74,1.74,0,0,0-.37-1.19,1.22,1.22,0,0,0-1.84,0,1.74,1.74,0,0,0-.37,1.2M195.28,45h1.4v7.29h-1.4Zm2.51,4.57a2.87,2.87,0,0,1,.34-1.35,2.35,2.35,0,0,1,1-1,2.88,2.88,0,0,1,1.41-.34,2.63,2.63,0,0,1,2,.78,2.69,2.69,0,0,1,.77,2,2.73,2.73,0,0,1-.77,2,2.61,2.61,0,0,1-1.95.79,3.07,3.07,0,0,1-1.38-.33,2.26,2.26,0,0,1-1-1,3.22,3.22,0,0,1-.34-1.55m1.43.08a1.75,1.75,0,0,0,.37,1.2,1.22,1.22,0,0,0,1.84,0,1.77,1.77,0,0,0,.37-1.21,1.74,1.74,0,0,0-.37-1.19,1.22,1.22,0,0,0-1.84,0,1.75,1.75,0,0,0-.37,1.2m5,3,1.6.19a.54.54,0,0,0,.18.38,1,1,0,0,0,.63.15,1.64,1.64,0,0,0,.82-.16.68.68,0,0,0,.28-.35,2.16,2.16,0,0,0,.06-.64v-.77a1.89,1.89,0,0,1-1.58.86,2,2,0,0,1-1.69-.9,3.07,3.07,0,0,1-.49-1.77,2.92,2.92,0,0,1,.64-2,2.06,2.06,0,0,1,1.59-.7,1.93,1.93,0,0,1,1.62.86V47h1.31v4.74a4.7,4.7,0,0,1-.16,1.4,1.73,1.73,0,0,1-.43.73,2,2,0,0,1-.74.41,4,4,0,0,1-1.18.15,3.05,3.05,0,0,1-1.91-.46,1.45,1.45,0,0,1-.56-1.17s0-.1,0-.17m1.25-3.1a1.9,1.9,0,0,0,.33,1.23,1,1,0,0,0,.8.39,1.12,1.12,0,0,0,.87-.4,1.76,1.76,0,0,0,.35-1.19,1.84,1.84,0,0,0-.34-1.22,1.07,1.07,0,0,0-.85-.4,1,1,0,0,0-.83.39,1.83,1.83,0,0,0-.33,1.19m5.1-4.54h1.4v1.29h-1.4Zm0,2h1.4v5.28h-1.4Zm3.87,1.61-1.27-.23a2,2,0,0,1,.74-1.13,2.7,2.7,0,0,1,1.55-.37,3.33,3.33,0,0,1,1.39.22,1.38,1.38,0,0,1,.64.56,2.88,2.88,0,0,1,.19,1.25l0,1.63a5.67,5.67,0,0,0,.07,1,3.05,3.05,0,0,0,.25.71h-1.38c0-.09-.08-.23-.13-.41l0-.17a2.53,2.53,0,0,1-.77.52,2.2,2.2,0,0,1-.87.17,1.81,1.81,0,0,1-1.29-.44,1.47,1.47,0,0,1-.47-1.12,1.51,1.51,0,0,1,.21-.8,1.39,1.39,0,0,1,.6-.54,4.65,4.65,0,0,1,1.11-.33,7.63,7.63,0,0,0,1.36-.34v-.14a.72.72,0,0,0-.2-.57,1.19,1.19,0,0,0-.75-.17,1,1,0,0,0-.58.15,1,1,0,0,0-.34.51m1.87,1.13a8.29,8.29,0,0,1-.85.21,2.68,2.68,0,0,0-.76.24.59.59,0,0,0-.27.49.68.68,0,0,0,.22.51.76.76,0,0,0,.56.21,1.21,1.21,0,0,0,.72-.25.86.86,0,0,0,.33-.46,2.7,2.7,0,0,0,.05-.68Z" style="fill:#fff"></path><path d="M220.23,1.35c-2-.16-3.64-.25-5-.25-5.2,0-9.42.66-12.54,2-1.52.63-3.7,1.67-6.48,3.11-3.15,1.64-5.27,2.71-6.33,3.17a28.88,28.88,0,0,1-6.37,2l-.41.12h0a27.19,27.19,0,0,1-5,.44c-6.29,0-13.06-2-20.13-6l-.75-.42v7.94l.28.14a39,39,0,0,0,16.92,3.92c5.25,0,9.35-.79,12.18-2.34,1.64-.9,3.62-2.13,5.86-3.65,2.71-1.83,4.65-3.08,5.76-3.73a20.8,20.8,0,0,1,6.09-2.31,34.89,34.89,0,0,1,6.94-.93,21.67,21.67,0,0,1,4.37.52l5,1.11V1.39Z" style="fill:#f9a649"></path></svg>